<svg width="17" height="16" viewBox="0 0 17 16" fill="none" xmlns="http://www.w3.org/2000/svg">
<path fill-rule="evenodd" clip-rule="evenodd" d="M6.77086 15.3042C6.20411 15.4679 5.59084 15.5507 4.94736 15.5507C4.23078 15.5507 3.54198 15.4685 2.89971 15.306C1.65686 14.9924 0.738469 14.3979 0.309484 13.6318C0.124597 13.3007 0.0309448 12.9478 0.0309448 12.5823C0.0309448 12.2058 0.120971 11.824 0.298607 11.4457C0.979547 9.99445 2.77464 9.01805 4.76308 9.01805H4.81988C4.65855 8.73347 4.58061 8.43862 4.58061 8.12866C4.58061 7.97459 4.60115 7.8175 4.64224 7.65738C2.55652 7.61025 0.995861 6.08282 0.995861 4.06901C0.995861 2.64731 2.13237 1.26187 3.75768 0.702375C4.24407 0.534406 4.74012 0.448608 5.22771 0.448608H9.68796C9.83961 0.448608 9.97435 0.547094 10.0215 0.691499C10.0686 0.8353 10.0166 0.993602 9.89399 1.08242L8.89645 1.80444C8.83663 1.84674 8.76473 1.8697 8.69042 1.8697H8.33333C8.79434 2.42255 9.06442 3.21103 9.06442 4.0962C9.06442 5.0732 8.57018 5.99703 7.67052 6.70092C6.97568 7.24229 6.94849 7.39153 6.94849 7.70028C6.95695 7.87006 7.44092 8.42412 7.97504 8.80175C9.2191 9.68147 9.68192 10.5449 9.68192 11.9853C9.68131 13.4904 8.53876 14.7906 6.77086 15.3042ZM16.8436 7.65376C16.8436 7.8471 16.6859 8.0042 16.4931 8.0042H13.9585V10.54C13.9585 10.7334 13.8008 10.8905 13.6093 10.8905H12.8872C12.6927 10.8905 12.5356 10.7334 12.5356 10.54V8.0042H10.0027C9.8094 8.0042 9.65231 7.84831 9.65231 7.65376V6.93294C9.65231 6.73959 9.8094 6.58129 10.0027 6.58129H12.5356V4.04786C12.5356 3.85391 12.6927 3.69742 12.8872 3.69742H13.6093C13.8008 3.69742 13.9585 3.85391 13.9585 4.04786V6.58129H16.4925C16.6853 6.58129 16.843 6.73838 16.843 6.93173L16.8436 7.65376ZM6.31793 10.3683L6.31791 10.3683C6.27569 10.3393 6.23281 10.3098 6.18907 10.2803C5.88516 10.1872 5.56251 10.1389 5.23201 10.1346H5.19213C3.67316 10.1346 2.34149 11.0536 2.34149 12.1025C2.34149 13.2445 3.48284 14.1369 4.93897 14.1369C6.85974 14.1369 7.83312 13.4735 7.83312 12.1684C7.83312 12.0451 7.81861 11.917 7.7878 11.7884C7.65839 11.284 7.19683 10.9685 6.49866 10.4912L6.49057 10.4857C6.434 10.4481 6.37661 10.4087 6.31793 10.3683ZM5.41492 6.50516H5.41371H5.39981C4.4349 6.47495 3.47059 5.33482 3.29778 4.01524C3.20171 3.2775 3.357 2.61408 3.72375 2.19537C3.95999 1.92468 4.27116 1.78088 4.61978 1.78088L4.65906 1.78209C5.64452 1.81049 6.58889 2.91014 6.76109 4.23094C6.85897 4.96988 6.69402 5.66592 6.32183 6.09008C6.08438 6.36197 5.77805 6.50516 5.41492 6.50516Z" fill="#222222"/>
</svg>
