<svg width="17" height="19" viewBox="0 0 17 19" fill="none" xmlns="http://www.w3.org/2000/svg">
<path d="M3.75 18.2656H0V5.14061H3.75V18.2656ZM1.99123 4.33626C1.01998 4.33626 0.234379 3.54875 0.234379 2.57749C0.234379 1.60624 1.02189 0.818726 1.99123 0.818726C2.96249 0.820576 3.75 1.60809 3.75 2.57749C3.75 3.54875 2.96249 4.33626 1.99123 4.33626ZM16.875 18.2656H13.125V10.1506C13.125 9.19999 12.8531 8.53442 11.685 8.53442C9.74806 8.53442 9.37497 10.1506 9.37497 10.1506V18.2656H5.62497V5.14061H9.37497V6.39497C9.9112 5.98437 11.2499 5.14246 13.125 5.14246C14.34 5.14246 16.875 5.86996 16.875 10.2649V18.2656Z" fill="#222222"/>
</svg>
