<svg width="17" height="18" viewBox="0 0 17 18" fill="none" xmlns="http://www.w3.org/2000/svg">
<path d="M11.882 8.76909C11.5214 8.52784 11.0792 8.32003 10.5679 8.15159C10.0629 7.98534 9.49198 7.83159 8.87042 7.69472C8.37917 7.57753 8.02104 7.48722 7.80792 7.4269C7.59948 7.36722 7.39167 7.28472 7.18979 7.17972C6.9951 7.07972 6.84104 6.9594 6.73198 6.82222C6.62885 6.69253 6.57885 6.54221 6.57885 6.36222C6.57885 6.06878 6.73448 5.82097 7.05479 5.60472C7.38698 5.38034 7.83479 5.2669 8.3851 5.2669C8.97792 5.2669 9.40917 5.3694 9.66729 5.57159C9.93292 5.7794 10.1648 6.07409 10.3564 6.44909C10.5214 6.74222 10.6707 6.94597 10.8145 7.07659C10.9692 7.2169 11.192 7.28909 11.4764 7.28909C11.7889 7.28909 12.0545 7.17503 12.2648 6.95003C12.4739 6.72628 12.5798 6.47003 12.5798 6.18753C12.5798 5.8944 12.4989 5.59065 12.3398 5.28597C12.1817 4.98472 11.9307 4.69409 11.5929 4.42284C11.2579 4.15315 10.831 3.93409 10.3248 3.7719C9.82167 3.61097 9.21823 3.5294 8.53292 3.5294C7.6751 3.5294 6.91698 3.65253 6.27948 3.89472C5.63385 4.14034 5.1326 4.49878 4.78917 4.9594C4.44292 5.42347 4.2676 5.96159 4.2676 6.55847C4.2676 7.1844 4.43479 7.71753 4.76448 8.14128C5.08948 8.55972 5.53323 8.89409 6.08385 9.13503C6.62229 9.37034 7.29917 9.57909 8.09635 9.75472C8.68229 9.88065 9.15635 10.0013 9.50542 10.1135C9.83948 10.221 10.1157 10.3772 10.3248 10.5782C10.5242 10.7707 10.6214 11.0153 10.6214 11.3275C10.6214 11.7222 10.4351 12.0444 10.0529 12.3132C9.66135 12.5882 9.14104 12.7278 8.50635 12.7278C8.04448 12.7278 7.66948 12.6588 7.39104 12.5235C7.11448 12.3885 6.8976 12.2166 6.74698 12.0113C6.59042 11.7975 6.44167 11.5272 6.30573 11.2063C6.18385 10.9122 6.0326 10.6838 5.85573 10.5297C5.67073 10.3688 5.44292 10.2875 5.17948 10.2875C4.85792 10.2875 4.58823 10.3907 4.37791 10.5941C4.16541 10.7997 4.0576 11.0507 4.0576 11.34C4.0576 11.8032 4.22291 12.2838 4.54916 12.7675C4.87229 13.2469 5.2976 13.6353 5.81354 13.9219C6.53542 14.316 7.4601 14.5153 8.56292 14.5153C9.48135 14.5153 10.2889 14.3691 10.9626 14.0813C11.6426 13.7903 12.1673 13.3807 12.5226 12.8638C12.8792 12.3441 13.0601 11.751 13.0601 11.1003C13.0601 10.556 12.9551 10.0878 12.7476 9.70878C12.541 9.3319 12.2498 9.01534 11.882 8.76909ZM12.0954 17.4003C11.3335 17.4003 10.617 17.2028 9.99042 16.8566C9.53479 16.9435 9.06479 16.9894 8.58417 16.9894C4.34354 16.9894 0.905415 13.4519 0.905415 9.08847C0.905415 8.54409 0.959165 8.01284 1.06104 7.49972C0.672602 6.8194 0.448853 6.02784 0.448853 5.18222C0.448853 2.6519 2.4426 0.600342 4.90198 0.600342C5.77323 0.600342 6.58479 0.858467 7.27135 1.30347C7.69823 1.22784 8.13698 1.18784 8.58417 1.18784C12.8254 1.18784 16.2632 4.72534 16.2632 9.08847C16.2632 9.67034 16.2014 10.2375 16.0857 10.7838C16.3817 11.3969 16.5485 12.0878 16.5485 12.8191C16.5482 15.3485 14.5548 17.4003 12.0954 17.4003Z" fill="#222222"/>
</svg>
