<?xml version="1.0" encoding="UTF-8"?>
<svg xmlns="http://www.w3.org/2000/svg" version="1.1" viewBox="0 0 374.22 75.93">
  <defs>
    <style>
      .cls-1, .cls-2 {
        fill: #6ab245;
      }

      .cls-2 {
        opacity: .8;
      }
    </style>
  </defs>
  <!-- Generator: Adobe Illustrator 28.6.0, SVG Export Plug-In . SVG Version: 1.2.0 Build 709)  -->
  <g>
    <g id="Layer_1">
      <path class="cls-1" d="M178.39,61.23c-16.37-6.33-29.24-20.51-43.87-30.94C108.45,11.71,75.84,5.22,45.72,12.62c-14.27,3.5-28.06,9.99-42.63,11.05-1.02.07-2.05.11-3.09.11v52.15h333.45c-14.3-13.71-32.57-22.23-51.34-23.09-34.98-1.6-70.59,21.19-103.72,8.38Z"/>
      <path class="cls-2" d="M334.97,57.38c-23.61-.99-46.7,12.89-69.92,8.51-17.51-3.3-31.68-16.47-48.86-21.2-16.98-4.68-35-.7-52.61-1.13-19.41-.48-38.66-6.53-54.85-17.24-12.17-8.05-22.92-18.79-36.73-23.47-19.76-6.7-41.2.33-62.02,1.54-3.25.19-6.61.12-9.99-.21v71.75h374.22c-9.99-10.97-24.39-17.93-39.24-18.55Z"/>
    </g>
  </g>
</svg>